<?xml version="1.0" encoding="utf-8"?>
<!-- Generator: Adobe Illustrator 16.0.0, SVG Export Plug-In . SVG Version: 6.00 Build 0)  -->
<!DOCTYPE svg PUBLIC "-//W3C//DTD SVG 1.1//EN" "http://www.w3.org/Graphics/SVG/1.1/DTD/svg11.dtd">
<svg version="1.1" id="圖層_1" xmlns="http://www.w3.org/2000/svg" xmlns:xlink="http://www.w3.org/1999/xlink" x="0px" y="0px"
	 width="1024px" height="1024px" viewBox="0 0 1024 1024" enable-background="new 0 0 1024 1024" xml:space="preserve">
<g>
	<path fill="#6B6961" d="M851.566,146.771V62c-88.459,0-166.367,45.167-211.929,113.695C594.077,107.167,516.169,62,427.709,62
		c-140.455,0-254.315,113.861-254.315,254.315c0,140.455,113.86,254.315,254.315,254.315c65.155,0,124.585-24.505,169.583-64.798
		v234.342h84.772v-234.27c44.988,40.25,104.386,64.726,169.502,64.726v-84.771c-92.569,0-167.802-74.192-169.502-166.355v-3.188
		h-0.041C682.023,222.679,757.931,146.771,851.566,146.771z M427.709,485.858c-93.637,0-169.544-75.907-169.544-169.543
		s75.907-169.543,169.544-169.543c93.636,0,169.543,75.907,169.543,169.543S521.345,485.858,427.709,485.858z"/>
	<g>
		<g>
			<g>
				<path fill="#6B6961" d="M203.279,909.414v23.573c0,4.946-1.505,8.583-4.516,10.908c-3.012,2.325-6.624,3.487-10.833,3.487
					c-4.213,0-7.848-1.162-10.907-3.487c-3.061-2.325-4.59-5.962-4.59-10.908V909.34c0-5.042,1.382-8.861,4.149-11.458
					c2.766-2.595,6.573-3.892,11.421-3.892s8.604,1.369,11.273,4.112C201.945,900.846,203.279,904.614,203.279,909.414z
					 M196.598,931.959v-21.077c0-3.23-0.675-5.679-2.021-7.346c-1.348-1.662-3.588-2.496-6.722-2.496
					c-3.133,0-5.373,0.819-6.72,2.46c-1.348,1.641-2.02,4.076-2.02,7.307v21.228c0,2.743,0.772,4.871,2.314,6.39
					c1.542,1.518,3.659,2.277,6.352,2.277c2.693,0,4.836-0.771,6.427-2.313C195.801,936.846,196.598,934.703,196.598,931.959z"/>
				<path fill="#6B6961" d="M220.54,960.383L213.855,962v-52.222h6.39l0.146,1.617c1.714-1.468,4.114-2.202,7.198-2.202
					c4.555,0,8.018,1.32,10.393,3.966c2.374,2.645,3.562,6.072,3.562,10.283v10.209c0,4.455-1.247,7.868-3.745,10.244
					c-2.497,2.376-5.803,3.562-9.915,3.562c-2.987,0-5.435-0.688-7.344-2.057V960.383z M234.86,932.694v-9.548
					c0-2.495-0.612-4.369-1.835-5.618c-1.225-1.25-2.939-1.871-5.142-1.871c-2.204,0-3.966,0.612-5.288,1.835
					c-1.322,1.226-2.008,2.985-2.056,5.286v10.577c0,5.044,2.447,7.566,7.344,7.566C232.535,940.922,234.86,938.179,234.86,932.694z
					"/>
				<path fill="#6B6961" d="M259.317,941.289c2.741,0,5.948-0.979,9.621-2.94l2.497,5.657c-3.771,2.302-7.712,3.452-11.824,3.452
					c-8.521,0-12.78-3.574-12.78-10.723v-15.057c0-3.966,1.235-7.053,3.709-9.255c2.473-2.203,5.74-3.306,9.805-3.306
					s7.235,1.091,9.512,3.27s3.415,5.203,3.415,9.07v10.576l-19.684,1.103V936c0,1.96,0.575,3.329,1.727,4.112
					C256.465,940.898,257.799,941.289,259.317,941.289z M266.515,926.159v-4.776c0-2.005-0.636-3.487-1.909-4.44
					c-1.273-0.956-2.853-1.435-4.737-1.435c-1.886,0-3.403,0.576-4.554,1.728c-1.151,1.15-1.727,2.656-1.727,4.516v5.144
					L266.515,926.159z"/>
				<path fill="#6B6961" d="M287.445,910.956c2.154-1.178,4.528-1.763,7.124-1.763s4.97,0.439,7.125,1.32
					c4.161,1.91,6.243,5.46,6.243,10.651v25.411h-6.685v-23.869c0-2.352-0.709-4.139-2.129-5.361
					c-1.421-1.226-3.185-1.838-5.288-1.838c-2.107,0-4.236,0.564-6.391,1.691v29.377h-6.609v-36.798h6.095L287.445,910.956z"/>
				<path fill="#6B6961" d="M363.535,938.717l1.102,6.171c-4.163,1.614-8.129,2.424-11.898,2.424c-0.783,0-1.972-0.075-3.562-0.222
					c-1.592-0.146-3.28-0.695-5.067-1.652c-1.788-0.953-3.231-2.472-4.333-4.555c-1.102-2.08-1.653-4.662-1.653-7.746v-23.576
					c0-3.721,0.526-6.539,1.58-8.448c1.052-1.91,2.655-3.523,4.81-4.848c2.204-1.223,4.822-1.835,7.859-1.835
					c3.77,0,7.246,0.807,10.429,2.424l-1.909,5.729c-2.351-0.881-4.786-1.32-7.307-1.32c-2.524,0-4.616,0.624-6.281,1.87
					c-1.664,1.25-2.496,3.171-2.496,5.769v24.087c0,2.206,0.538,3.918,1.615,5.144c1.37,1.566,3.574,2.349,6.61,2.349
					C356.067,940.479,359.568,939.895,363.535,938.717z"/>
				<path fill="#6B6961" d="M395.042,946.576h-6.316l-0.22-1.617c-1.959,1.617-4.31,2.424-7.052,2.424
					c-9.206,0-13.808-4.479-13.808-13.439v-24.165h6.684v23.577c0,5.044,2.374,7.566,7.124,7.566c4.603,0,6.903-2.597,6.903-7.785
					v-23.358h6.685V946.576z"/>
				<path fill="#6B6961" d="M410.246,946.576h-6.684v-51.411h6.684V946.576z"/>
				<path fill="#6B6961" d="M431.322,942.243l-1.982,5.286c-6.659-0.586-9.988-4.136-9.988-10.647v-41.717h6.758v14.613h7.637
					l-1.762,6.318h-5.875v20.785C426.109,939.966,427.845,941.753,431.322,942.243z"/>
				<path fill="#6B6961" d="M465.475,946.576h-6.317l-0.222-1.617c-1.957,1.617-4.309,2.424-7.05,2.424
					c-9.206,0-13.808-4.479-13.808-13.439v-24.165h6.684v23.577c0,5.044,2.375,7.566,7.124,7.566c4.603,0,6.904-2.597,6.904-7.785
					v-23.358h6.685V946.576z"/>
				<path fill="#6B6961" d="M479.354,910.882c2.202-1.127,4.725-1.688,7.564-1.688c0.881,0,2.743,0.269,5.582,0.807l-1.617,6.39
					c-1.32-0.634-2.617-0.954-3.891-0.954s-2.475,0.194-3.598,0.586c-2.646,0.98-3.966,2.696-3.966,5.144v25.411h-6.686v-36.798
					h6.317L479.354,910.882z"/>
				<path fill="#6B6961" d="M506.603,941.289c2.741,0,5.95-0.979,9.623-2.94l2.495,5.657c-3.771,2.302-7.71,3.452-11.825,3.452
					c-8.517,0-12.778-3.574-12.778-10.723v-15.057c0-3.966,1.236-7.053,3.708-9.255c2.472-2.203,5.741-3.306,9.806-3.306
					s7.235,1.091,9.513,3.27c2.276,2.179,3.415,5.203,3.415,9.07v10.576l-19.685,1.103V936c0,1.96,0.576,3.329,1.728,4.112
					C503.749,940.898,505.084,941.289,506.603,941.289z M513.802,926.159v-4.776c0-2.005-0.64-3.487-1.909-4.44
					c-1.276-0.956-2.854-1.435-4.74-1.435s-3.403,0.576-4.551,1.728c-1.151,1.15-1.728,2.656-1.728,4.516v5.144L513.802,926.159z"/>
				<path fill="#6B6961" d="M556.251,946.576h-6.683v-51.411h24.53v6.61h-17.848v14.468h11.09l-2.349,6.464h-8.741V946.576z"/>
				<path fill="#6B6961" d="M600.833,923.367v9.695c0,4.112-1.126,7.516-3.38,10.209c-2.253,2.692-5.654,4.04-10.209,4.04
					c-4.551,0-7.994-1.36-10.318-4.076c-2.325-2.72-3.488-6.108-3.488-10.173v-9.695c0-4.649,1.187-8.212,3.562-10.687
					c2.373-2.472,5.741-3.709,10.099-3.709c4.356,0,7.737,1.285,10.137,3.855C599.632,915.397,600.833,918.912,600.833,923.367z
					 M594.223,933.797v-10.43c0-5.188-2.325-7.785-6.979-7.785c-4.748,0-7.124,2.598-7.124,7.785v10.43
					c0,2.302,0.663,4.053,1.984,5.251c1.321,1.202,3.036,1.8,5.14,1.8c2.104,0,3.796-0.613,5.069-1.835
					C593.586,937.787,594.223,936.051,594.223,933.797z"/>
				<path fill="#6B6961" d="M633.591,946.576h-6.318l-0.221-1.617c-1.958,1.617-4.31,2.424-7.05,2.424
					c-9.205,0-13.807-4.479-13.807-13.439v-24.165h6.682v23.577c0,5.044,2.376,7.566,7.125,7.566c4.602,0,6.903-2.597,6.903-7.785
					v-23.358h6.686V946.576z"/>
				<path fill="#6B6961" d="M647.69,910.956c2.151-1.178,4.527-1.763,7.124-1.763c2.595,0,4.967,0.439,7.122,1.32
					c4.163,1.91,6.243,5.46,6.243,10.651v25.411h-6.683v-23.869c0-2.352-0.711-4.139-2.131-5.361
					c-1.419-1.226-3.183-1.838-5.286-1.838c-2.107,0-4.238,0.564-6.39,1.691v29.377h-6.61v-36.798h6.097L647.69,910.956z"/>
				<path fill="#6B6961" d="M685.073,910.589c2.397-0.98,4.919-1.471,7.564-1.471c2.645,0,4.871,0.49,6.686,1.471v-15.424h6.607
					v51.411c-4.211,0.589-8.103,0.882-11.677,0.882s-6.808-0.735-9.694-2.202c-3.819-1.958-5.729-5.361-5.729-10.209v-13.882
					C678.83,916.021,680.91,912.498,685.073,910.589z M699.323,917.417c-2.158-1.123-4.25-1.688-6.282-1.688
					s-3.808,0.565-5.322,1.688c-1.519,1.127-2.277,3.037-2.277,5.729v12.265c0,2.498,1.368,4.214,4.111,5.144
					c1.471,0.49,3.021,0.734,4.666,0.734c1.638,0,3.341-0.196,5.104-0.588V917.417z"/>
				<path fill="#6B6961" d="M721.943,917.124c4.261,0,7.931,0.98,11.018,2.938c0-4.112-3.036-6.168-9.108-6.168l0.514-4.701
					c3.966,0,6.903,0.466,8.813,1.396c1.027,0.538,1.934,1.075,2.719,1.613c0.783,0.541,1.396,1.249,1.836,2.131
					c0.442,0.882,0.807,1.653,1.103,2.313c0.293,0.66,0.487,1.557,0.585,2.681c0.146,1.716,0.222,3.503,0.222,5.361v21.888
					c-5.093,0.49-9.157,0.735-12.193,0.735c-10.723,0-16.084-4.381-16.084-13.146v-6.097c0-4.848,1.692-8.104,5.068-9.77
					C718.1,917.516,719.935,917.124,721.943,917.124z M732.961,940.772v-14.028c-2.597-1.515-5.559-2.471-8.887-2.862
					c-0.345-0.048-0.918-0.075-1.729-0.075c-0.807,0-1.724,0.355-2.752,1.067c-1.028,0.708-1.542,2.021-1.542,3.93v4.848
					c0,5.041,3.183,7.563,9.548,7.563C729.214,941.215,731.001,941.068,732.961,940.772z"/>
				<path fill="#6B6961" d="M757.784,942.243l-1.981,5.286c-6.662-0.586-9.99-4.136-9.99-10.647v-41.717h6.756v14.613h7.639
					l-1.763,6.318h-5.876v20.785C752.568,939.966,754.309,941.753,757.784,942.243z"/>
				<path fill="#6B6961" d="M774.971,898.066c0,0.954-0.367,1.812-1.103,2.57c-0.735,0.76-1.578,1.139-2.534,1.139
					c-0.953,0-1.811-0.379-2.57-1.139c-0.759-0.759-1.139-1.616-1.139-2.57c0-0.956,0.38-1.802,1.139-2.534
					c0.76-0.735,1.617-1.103,2.57-1.103c0.956,0,1.799,0.367,2.534,1.103C774.604,896.265,774.971,897.11,774.971,898.066z
					 M774.528,946.576h-6.682v-36.798h6.682V946.576z"/>
				<path fill="#6B6961" d="M813.971,923.367v9.695c0,4.112-1.126,7.516-3.38,10.209c-2.253,2.692-5.654,4.04-10.209,4.04
					c-4.552,0-7.994-1.36-10.319-4.076c-2.325-2.72-3.487-6.108-3.487-10.173v-9.695c0-4.649,1.187-8.212,3.562-10.687
					c2.373-2.472,5.741-3.709,10.098-3.709c4.357,0,7.737,1.285,10.138,3.855C812.77,915.397,813.971,918.912,813.971,923.367z
					 M807.36,933.797v-10.43c0-5.188-2.325-7.785-6.979-7.785c-4.748,0-7.124,2.598-7.124,7.785v10.43
					c0,2.302,0.663,4.053,1.984,5.251c1.32,1.202,3.036,1.8,5.14,1.8c2.104,0,3.796-0.613,5.069-1.835
					C806.724,937.787,807.36,936.051,807.36,933.797z"/>
				<path fill="#6B6961" d="M827.999,910.956c2.151-1.178,4.527-1.763,7.124-1.763c2.595,0,4.967,0.439,7.122,1.32
					c4.163,1.91,6.243,5.46,6.243,10.651v25.411h-6.683v-23.869c0-2.352-0.711-4.139-2.131-5.361
					c-1.419-1.226-3.183-1.838-5.286-1.838c-2.107,0-4.238,0.564-6.39,1.691v29.377h-6.61v-36.798h6.096L827.999,910.956z"/>
			</g>
		</g>
		<g>
			<path fill="#6B6961" d="M185.389,821.821v52.389h-9.007v-85.974h36.72v33.585H185.389z M185.389,794.99v6.464h19.097v-6.464
				H185.389z M204.485,815.064v-7.344h-19.097v7.344H204.485z M230.237,851.198v21.445h-8.129v-21.445H210.36
				c-0.786,6.56-3.917,16.843-12.928,22.814c-1.369-1.566-4.112-4.014-6.069-5.386c7.441-4.504,10.28-12.044,11.066-17.429h-11.166
				v-7.54h11.359v-9.205h-9.694v-7.346h47.589v7.346h-10.28v9.205h12.143v7.54H230.237z M222.108,843.658v-9.205h-11.554v9.205
				H222.108z M257.46,863.045c0,4.996-1.079,7.736-4.31,9.303c-3.132,1.471-8.03,1.665-15.274,1.665
				c-0.392-2.547-1.763-6.758-3.036-9.304c4.895,0.296,9.987,0.197,11.554,0.197c1.568,0,1.96-0.49,1.96-1.957v-40.835H220.25
				v-33.878h37.21V863.045z M228.865,794.99v6.464h19.488v-6.464H228.865z M248.354,815.261v-7.54h-19.488v7.54H248.354z"/>
			<path fill="#6B6961" d="M352.742,810.462c-2.447,15.08-6.168,27.419-11.85,37.7c5.093,7.737,11.655,13.905,19.88,17.725
				c-1.958,1.76-4.896,5.286-6.169,7.833c-7.931-4.112-14.103-9.988-19.096-17.235c-5.777,7.247-13.021,13.123-22.13,17.824
				c-0.882-2.06-3.425-6.172-5.188-7.932c9.597-4.408,16.939-10.478,22.324-18.313c-3.622-7.05-6.362-15.176-8.615-23.989
				c-1.862,3.819-4.014,7.244-6.268,10.28c-1.273-1.664-4.112-4.7-6.267-6.56c-0.589,28.104-1.273,38.385-3.622,41.615
				c-1.665,2.253-3.329,3.135-6.073,3.526c-2.349,0.392-6.461,0.392-10.478,0.194c-0.293-2.447-1.174-5.971-2.349-8.323
				c3.523,0.392,6.757,0.392,8.323,0.392c1.371,0,2.253-0.293,2.839-1.369c1.565-2.056,2.253-11.066,2.743-36.134h-11.165
				c0,15.962-1.957,32.509-14.491,46.122c-1.566-1.961-4.504-4.408-6.757-5.975c11.261-12.336,12.731-27.123,12.731-40.342v-19.587
				h-10.676v-8.517h42.892v8.517h-23.699v11.458h19.976c0,0,0,2.741-0.096,3.918l-0.099,2.938
				c7.639-9.988,12.632-25.756,15.373-42.108l9.303,1.471c-1.079,5.582-2.349,11.161-3.721,16.448h29.473v8.422H352.742z
				 M290.366,799.3c-0.879-3.526-2.938-9.205-4.698-13.317l8.027-2.154c1.961,4.112,4.115,9.497,4.997,13.023L290.366,799.3z
				 M327.382,811.149c1.958,10.182,4.603,19.484,8.323,27.709c3.819-8.126,6.267-17.429,7.932-28.396h-15.962L327.382,811.149z"/>
			<path fill="#6B6961" d="M441.662,809.777c-5.191,14.787-12.435,26.732-21.64,36.525c10.478,8.518,23.206,14.883,38.286,18.604
				c-2.057,1.957-4.701,5.777-6.169,8.422c-15.569-4.211-28.594-11.162-39.167-20.367c-10.869,9.205-24.186,16.058-40.052,20.953
				c-1.076-2.35-3.819-6.561-5.679-8.715c15.765-4.211,28.595-10.28,38.974-18.801c-9.497-10.086-16.745-22.324-22.229-36.621
				h-15.08v-8.813h42.4c-1.177-4.014-3.918-10.185-6.562-14.787l9.597-2.839c2.842,4.603,5.974,10.869,7.246,14.886l-8.714,2.74
				h43.967v8.813H441.662z M393.484,809.777c4.701,11.554,11.261,21.64,19.584,30.259c7.932-8.228,14.004-18.215,18.409-30.259
				H393.484z"/>
			<path fill="#6B6961" d="M499.445,787.354c-2.645,6.267-5.974,12.534-9.6,18.505v68.055h-8.615v-55.521
				c-3.721,4.897-7.639,9.303-11.652,13.023c-0.783-2.154-3.329-7.05-4.994-9.204c10.379-8.909,20.466-23.107,26.535-37.602
				L499.445,787.354z M539.494,862.949c5.287,0,6.168-4.112,6.951-20.564c2.155,1.665,5.875,3.428,8.225,4.014
				c-1.273,18.311-3.523,24.774-14.59,24.774h-17.527c-10.771,0-13.808-3.23-13.808-14.981v-70.406h8.715v25.854h34.47v8.715h-34.47
				v36.032c0,5.484,0.98,6.563,5.875,6.563H539.494z"/>
			<path fill="#6B6961" d="M633.504,837.977c5.483,5.682,13.218,10.675,20.758,13.32c-1.957,1.664-4.602,4.895-5.971,7.05
				c-9.402-4.112-18.705-11.85-24.676-20.37h-29.18c-2.353,3.428-5.389,6.855-8.619,9.893h17.919v-7.346h9.204v7.346h19.39v7.244
				h-19.39v8.717h32.904v7.54h-73.736v-7.54h31.628v-8.717h-18.702v-6.462c-4.896,4.405-10.576,8.126-16.156,10.771
				c-1.273-2.154-3.918-5.385-5.875-6.951c7.734-2.938,15.57-8.421,21.149-14.494h-20.172v-7.537h18.997v-30.258h-14.198v-7.441
				h14.198v-8.521h9.106v8.521h33.292v-8.422h9.304v8.422h14.004v7.441h-14.004v30.258h18.409v7.537H633.504z M592.083,800.182
				v5.483h33.292v-5.483H592.083z M592.083,817.906h33.292v-5.583h-33.292V817.906z M592.083,830.439h33.292v-5.875h-33.292V830.439
				z"/>
			<path fill="#6B6961" d="M711.064,821.235v11.847h32.802v8.227h-32.802v21.834h37.503v8.323h-84.016v-8.323h36.818v-21.834
				h-32.315v-8.227h32.315v-11.847h-20.466v-5.093c-4.602,2.448-9.303,4.504-14.198,6.268c-1.273-2.646-3.819-6.169-6.072-8.422
				c18.215-5.583,35.937-16.354,45.239-30.749l8.521,3.819c-0.882,1.273-1.664,2.546-2.546,3.721
				c9.596,9.596,26.048,18.899,40.733,23.308c-2.056,1.858-4.896,5.483-6.267,7.932c-4.797-1.764-9.692-4.017-14.59-6.758v5.975
				H711.064z M683.94,842.286c3.722,5.191,7.636,12.34,9.205,16.942l-7.932,3.425c-1.371-4.603-5.191-11.945-8.715-17.43
				L683.94,842.286z M727.319,812.813c-7.639-4.603-14.883-9.987-20.759-15.863c-5.681,6.169-12.34,11.455-19.682,15.863H727.319z
				 M718.506,859.813c3.329-4.7,7.441-12.142,9.498-17.527l8.812,3.23c-3.721,6.172-8.03,12.83-11.359,17.235L718.506,859.813z"/>
			<path fill="#6B6961" d="M811.146,786.473c-0.49,0.586-0.881,1.273-1.47,1.859c9.105,8.421,25.656,15.862,40.931,19.097
				c-1.859,1.565-4.405,4.796-5.777,6.951c-2.349-0.685-4.895-1.471-7.343-2.35v25.36h-66.195v-24.676
				c-2.447,0.882-4.797,1.665-7.247,2.35c-0.783-1.665-3.329-5.386-4.896-6.952c17.726-4.503,35.056-13.023,43.968-24.479
				L811.146,786.473z M837.096,811.932c-5.289-1.861-10.675-4.112-15.668-6.954v2.842h-33.881v-2.352
				c-4.504,2.546-9.304,4.603-14.199,6.464H837.096z M776.875,841.309h55.812v32.214h-9.303v-2.642h-37.503v3.033h-9.007V841.309z
				 M790.191,818.492c2.154,3.329,4.307,7.832,4.994,10.771l-6.465,2.154h11.557v-13.511h-21.248v13.511h9.398
				c-0.684-3.036-2.546-7.54-4.602-10.968L790.191,818.492z M785.882,847.576v5.385h37.503v-5.385H785.882z M823.385,864.709v-5.48
				h-37.503v5.48H823.385z M815.65,801.553c-4.017-2.447-7.639-5.289-10.771-8.228c-3.135,2.938-6.855,5.78-10.675,8.228H815.65z
				 M829.457,817.906h-21.738v13.511h10.968l-6.072-1.858c1.763-3.136,3.819-8.129,4.896-11.458l7.639,2.154
				c-2.155,4.211-4.311,8.323-6.07,11.162h10.379V817.906z"/>
		</g>
	</g>
</g>
</svg>
